<?xml version="1.0"?>
<svg version="1.0" xmlns="http://www.w3.org/2000/svg"
     viewBox="0 0 512 512"
     preserveAspectRatio="xMidYMid meet">
    <rect width="500" height="500" x="6" y="6" fill="#ffffff" />
    <g transform="translate(0,512) scale(0.1,-0.1)" fill="#000000">
        <path d="M0 2560 l0 -2560 2560 0 2560 0 0 2560 0 2560 -2560 0 -2560 0 0
-2560z m4175 1443 l0 -418 207 0 208 0 0 -210 0 -210 -207 2 -208 2 -3 206 -2
205 -1250 0 -1250 0 0 -1040 0 -1040 415 0 415 0 0 335 0 335 290 0 290 0 0
290 0 290 545 -2 545 -3 3 -1043 2 -1042 -1672 0 -1673 0 0 1880 0 1880 1673
0 1672 0 0 -417z m-1255 -1463 l0 -210 -210 0 -210 0 0 210 0 210 210 0 210 0
0 -210z"/>
    </g>
</svg>
